<?xml version="1.0" encoding="UTF-8" standalone="no"?>
<!-- Created with Inkscape (http://www.inkscape.org/) -->

<svg
   width="256"
   height="256"
   viewBox="0 0 67.733325 67.733325"
   version="1.1"
   id="svg1552"
   xml:space="preserve"
   xmlns="http://www.w3.org/2000/svg"
   xmlns:svg="http://www.w3.org/2000/svg"><defs
     id="defs1549"><filter
       id="mask-powermask-path-effect19306_inverse"
       style="color-interpolation-filters:sRGB"
       height="100"
       width="100"
       x="-50"
       y="-50"><feColorMatrix
         id="mask-powermask-path-effect19306_primitive1"
         values="1"
         type="saturate"
         result="fbSourceGraphic" /><feColorMatrix
         id="mask-powermask-path-effect19306_primitive2"
         values="-1 0 0 0 1 0 -1 0 0 1 0 0 -1 0 1 0 0 0 1 0 "
         in="fbSourceGraphic" /></filter><filter
       id="mask-powermask-path-effect19311_inverse"
       style="color-interpolation-filters:sRGB"
       height="100"
       width="100"
       x="-50"
       y="-50"><feColorMatrix
         id="mask-powermask-path-effect19311_primitive1"
         values="1"
         type="saturate"
         result="fbSourceGraphic" /><feColorMatrix
         id="mask-powermask-path-effect19311_primitive2"
         values="-1 0 0 0 1 0 -1 0 0 1 0 0 -1 0 1 0 0 0 1 0 "
         in="fbSourceGraphic" /></filter><filter
       id="mask-powermask-path-effect19316_inverse"
       style="color-interpolation-filters:sRGB"
       height="100"
       width="100"
       x="-50"
       y="-50"><feColorMatrix
         id="mask-powermask-path-effect19316_primitive1"
         values="1"
         type="saturate"
         result="fbSourceGraphic" /><feColorMatrix
         id="mask-powermask-path-effect19316_primitive2"
         values="-1 0 0 0 1 0 -1 0 0 1 0 0 -1 0 1 0 0 0 1 0 "
         in="fbSourceGraphic" /></filter><filter
       id="mask-powermask-path-effect19321_inverse"
       style="color-interpolation-filters:sRGB"
       height="100"
       width="100"
       x="-50"
       y="-50"><feColorMatrix
         id="mask-powermask-path-effect19321_primitive1"
         values="1"
         type="saturate"
         result="fbSourceGraphic" /><feColorMatrix
         id="mask-powermask-path-effect19321_primitive2"
         values="-1 0 0 0 1 0 -1 0 0 1 0 0 -1 0 1 0 0 0 1 0 "
         in="fbSourceGraphic" /></filter><filter
       id="mask-powermask-path-effect19366_inverse"
       style="color-interpolation-filters:sRGB"
       height="100"
       width="100"
       x="-50"
       y="-50"><feColorMatrix
         id="mask-powermask-path-effect19366_primitive1"
         values="1"
         type="saturate"
         result="fbSourceGraphic" /><feColorMatrix
         id="mask-powermask-path-effect19366_primitive2"
         values="-1 0 0 0 1 0 -1 0 0 1 0 0 -1 0 1 0 0 0 1 0 "
         in="fbSourceGraphic" /></filter><filter
       id="mask-powermask-path-effect19371_inverse"
       style="color-interpolation-filters:sRGB"
       height="100"
       width="100"
       x="-50"
       y="-50"><feColorMatrix
         id="mask-powermask-path-effect19371_primitive1"
         values="1"
         type="saturate"
         result="fbSourceGraphic" /><feColorMatrix
         id="mask-powermask-path-effect19371_primitive2"
         values="-1 0 0 0 1 0 -1 0 0 1 0 0 -1 0 1 0 0 0 1 0 "
         in="fbSourceGraphic" /></filter></defs><g
     id="layer1"><path
       id="path1777"
       style="fill:#63945a;fill-opacity:1;stroke:none;stroke-width:5.44938"
       d="M 33.866308,0 A 33.866637,33.866637 0 0 0 0,33.866308 33.866637,33.866637 0 0 0 33.866308,67.733325 33.866637,33.866637 0 0 0 67.733325,33.866308 33.866637,33.866637 0 0 0 33.866308,0 Z m 1.056526,10.494305 c 5.78885,0.03485 11.54042,1.994161 15.979158,5.819053 l -1.675967,1.947017 C 43.014703,12.908043 33.671554,11.63042 26.034249,14.765821 18.396939,17.901226 12.398132,25.269182 12.703147,37.740473 l -2.569295,0.06458 c -0.3262594,-13.33991 6.387553,-21.913093 14.92405,-25.417652 2.134128,-0.876138 4.37833,-1.445723 6.65349,-1.714282 1.066479,-0.125883 2.139433,-0.185262 3.211442,-0.178808 z m 0.513716,4.820711 c 5.13517,-0.0501 9.989235,1.511145 13.073536,4.128185 L 46.8476,21.40299 C 43.295875,18.389336 35.524128,16.764475 28.956903,18.955028 22.389678,21.145583 16.869808,26.751948 17.034265,38.630963 l -2.572133,0.03477 C 14.286019,25.944787 20.683958,19.005516 28.144463,16.517 c 1.865125,-0.622127 3.786303,-0.991342 5.690624,-1.134577 0.535591,-0.04029 1.070239,-0.06223 1.601463,-0.0674 z m 0.884814,4.587976 c 0.199163,6.95e-4 0.398659,0.0048 0.598154,0.01208 3.191936,0.115475 6.416178,1.0668 9.324252,2.917687 l -1.380794,2.166978 c -5.037829,-3.206404 -11.122968,-3.266359 -15.857824,-0.721616 -4.734856,2.544744 -8.164825,7.621053 -7.862569,15.141174 l -2.566457,0.102171 c -0.336288,-8.366862 3.652781,-14.519337 9.211431,-17.506828 2.605616,-1.400386 5.546367,-2.122049 8.533807,-2.111634 z m 1.119677,4.93424 c 4.206263,-0.0014 7.497156,1.278303 9.577561,4.253067 l 5.93471,17.995711 -3.254015,-1.148767 -2.872274,-7.08348 C 46.252688,37.748201 45.67856,37.025383 45.104225,36.939386 L 34.574443,35.59904 c -0.356513,0.457972 -0.466552,0.947115 0.191579,1.531927 l 10.146624,2.871565 c 1.310086,0.174685 3.348723,7.392978 5.408221,14.811943 l -8.902065,0.430698 C 33.717097,44.946028 31.248502,44.538284 24.236948,44.788475 19.60591,32.47448 27.940964,24.660853 36.10637,24.878386 c 0.454384,-0.0271 0.899539,-0.041 1.334671,-0.04115 z" /></g></svg>
